<svg xmlns="http://www.w3.org/2000/svg" xmlns:xlink="http://www.w3.org/1999/xlink" zoomAndPan="magnify" preserveAspectRatio="xMidYMid meet" version="1.0" viewBox="54.01 154 264.4 60.1"><defs><g/><clipPath id="03a5432a9b"><path d="M 54.007812 154 L 114.007812 154 L 114.007812 213.875 L 54.007812 213.875 Z M 54.007812 154 " clip-rule="nonzero"/></clipPath><clipPath id="3ed1c1044d"><path d="M 83 164.492188 L 86 164.492188 L 86 172 L 83 172 Z M 83 164.492188 " clip-rule="nonzero"/></clipPath><clipPath id="f74869ad0e"><path d="M 99.632812 186 L 106.832031 186 L 106.832031 187.898438 L 99.632812 187.898438 Z M 99.632812 186 " clip-rule="nonzero"/></clipPath><clipPath id="77671a3942"><path d="M 62.058594 186 L 70 186 L 70 188 L 62.058594 188 Z M 62.058594 186 " clip-rule="nonzero"/></clipPath><clipPath id="da5e42bdad"><path d="M 79 208 L 90 208 L 90 211.742188 L 79 211.742188 Z M 79 208 " clip-rule="nonzero"/></clipPath><clipPath id="736b2eccb2"><path d="M 74.105469 176.707031 L 94.789062 176.707031 L 94.789062 202.6875 L 74.105469 202.6875 Z M 74.105469 176.707031 " clip-rule="nonzero"/></clipPath><clipPath id="6a786cc3e5"><path d="M 74.1875 184.226562 C 74.1875 184.214844 74.261719 183.875 74.289062 183.699219 C 74.324219 183.539062 74.402344 183.199219 74.402344 183.1875 C 74.402344 183.171875 74.550781 182.859375 74.625 182.710938 C 74.703125 182.546875 74.839844 182.234375 74.851562 182.21875 C 74.851562 182.21875 75.078125 181.945312 75.179688 181.820312 C 75.292969 181.679688 75.515625 181.40625 75.515625 181.40625 C 75.515625 181.390625 75.816406 181.167969 75.945312 181.078125 C 76.03125 181.015625 76.105469 180.992188 76.183594 180.902344 C 76.257812 180.804688 76.269531 180.640625 76.359375 180.503906 C 76.46875 180.289062 76.882812 179.800781 76.882812 179.800781 C 76.882812 179.800781 77.085938 179.484375 77.335938 179.308594 C 77.898438 178.882812 80.09375 178.21875 80.609375 177.730469 C 80.835938 177.515625 80.699219 177.277344 80.949219 177.128906 C 81.539062 176.738281 83.832031 176.703125 85.050781 176.789062 C 86.039062 176.878906 87.359375 177.378906 87.734375 177.429688 C 87.820312 177.441406 87.835938 177.441406 87.910156 177.441406 C 88.035156 177.441406 88.386719 177.453125 88.398438 177.464844 C 88.398438 177.464844 88.699219 177.554688 88.863281 177.59375 C 89.011719 177.640625 89.3125 177.730469 89.3125 177.730469 C 89.328125 177.742188 90.167969 178.15625 90.417969 178.433594 C 90.632812 178.65625 90.695312 179.023438 90.84375 179.171875 C 90.945312 179.273438 91.171875 179.347656 91.171875 179.347656 C 91.183594 179.347656 91.421875 179.5625 91.546875 179.675781 C 91.671875 179.773438 91.910156 179.988281 91.910156 180 C 91.921875 180 92.097656 180.277344 92.199219 180.402344 C 92.273438 180.515625 92.335938 180.613281 92.425781 180.726562 C 92.511719 180.839844 92.625 180.964844 92.726562 181.078125 C 92.839844 181.191406 93.050781 181.441406 93.050781 181.441406 C 93.050781 181.441406 93.226562 181.769531 93.277344 181.882812 C 93.316406 181.945312 93.367188 182.03125 93.367188 182.03125 C 93.367188 182.03125 93.367188 182.042969 93.367188 182.042969 C 93.367188 182.042969 93.503906 182.308594 93.503906 182.308594 C 93.503906 182.308594 93.515625 182.359375 93.527344 182.394531 C 93.566406 182.457031 93.742188 182.695312 93.742188 182.695312 C 93.742188 182.710938 93.855469 183.011719 93.917969 183.171875 C 93.980469 183.324219 94.09375 183.625 94.09375 183.636719 C 94.09375 183.636719 94.105469 183.886719 94.144531 183.976562 C 94.15625 184.050781 94.195312 184.089844 94.230469 184.164062 C 94.292969 184.277344 94.457031 184.605469 94.46875 184.605469 C 94.46875 184.617188 94.542969 184.929688 94.582031 185.09375 C 94.621094 185.253906 94.707031 185.570312 94.707031 185.570312 C 94.707031 185.582031 94.707031 185.90625 94.707031 186.070312 C 94.707031 186.234375 94.707031 186.574219 94.707031 186.574219 C 94.707031 186.585938 94.621094 186.910156 94.582031 187.0625 C 94.558594 187.1875 94.46875 187.351562 94.496094 187.425781 C 94.507812 187.464844 94.558594 187.464844 94.570312 187.511719 C 94.621094 187.714844 94.179688 188.578125 94.21875 189.042969 C 94.242188 189.457031 94.695312 189.695312 94.65625 190.171875 C 94.582031 191.074219 93.226562 193.207031 92.449219 194.011719 C 91.960938 194.523438 90.996094 194.8125 90.921875 194.976562 C 90.90625 195 90.945312 195.050781 90.945312 195.050781 C 90.945312 195.0625 90.921875 195.316406 90.945312 195.542969 C 91.007812 195.992188 91.496094 196.871094 91.472656 197.648438 C 91.421875 198.675781 91.09375 200.292969 90.292969 201.109375 C 89.414062 202 86.191406 202.339844 86.167969 202.550781 C 86.167969 202.589844 86.339844 202.640625 86.339844 202.652344 C 86.328125 202.652344 86.203125 202.566406 86.140625 202.566406 C 86.054688 202.566406 85.964844 202.679688 85.851562 202.664062 C 85.652344 202.640625 85.375 202.277344 85.050781 202.101562 C 84.636719 201.863281 83.910156 201.488281 83.53125 201.449219 C 83.332031 201.4375 83.21875 201.535156 83.042969 201.574219 C 82.878906 201.613281 82.527344 201.699219 82.527344 201.699219 C 82.515625 201.699219 82.164062 201.699219 81.988281 201.699219 C 81.8125 201.699219 81.460938 201.699219 81.449219 201.699219 C 81.449219 201.699219 81.097656 201.613281 80.9375 201.574219 C 80.761719 201.523438 80.421875 201.449219 80.410156 201.449219 C 80.394531 201.4375 80.09375 201.273438 79.933594 201.199219 C 79.769531 201.109375 79.46875 200.945312 79.457031 200.945312 C 79.457031 200.933594 79.191406 200.707031 79.054688 200.582031 C 78.917969 200.46875 78.652344 200.230469 78.652344 200.230469 C 78.652344 200.21875 78.453125 199.929688 78.351562 199.792969 C 78.25 199.644531 78.050781 199.355469 78.039062 199.339844 C 78.039062 199.339844 77.914062 199.015625 77.851562 198.839844 C 77.789062 198.675781 77.660156 198.351562 77.660156 198.339844 C 77.660156 198.339844 77.625 197.988281 77.597656 197.8125 C 77.574219 197.636719 77.535156 197.285156 77.535156 197.273438 C 77.535156 197.273438 77.511719 197.058594 77.535156 196.871094 C 77.585938 196.496094 78.113281 195.679688 77.988281 195.101562 C 77.824219 194.414062 76.859375 193.835938 76.320312 193.070312 C 75.667969 192.15625 74.726562 191.074219 74.425781 189.960938 C 74.136719 188.832031 74.539062 186.320312 74.527344 186.308594 C 74.527344 186.296875 74.4375 185.972656 74.386719 185.796875 C 74.339844 185.632812 74.238281 185.292969 74.238281 185.28125 C 74.238281 185.28125 74.210938 184.929688 74.210938 184.753906 C 74.199219 184.578125 74.1875 184.226562 74.1875 184.226562 M 93.367188 182.03125 C 93.367188 182.03125 93.367188 182.042969 93.367188 182.042969 C 93.367188 182.042969 93.367188 182.03125 93.367188 182.03125 " clip-rule="nonzero"/></clipPath></defs><g fill="#ffffff" fill-opacity="1"><g transform="translate(114.415983, 210.493579)"><g><path d="M 10.109375 -4.890625 C 11.359375 -4.890625 12.238281 -5.007812 12.75 -5.25 C 13.269531 -5.5 13.53125 -5.972656 13.53125 -6.671875 C 13.53125 -7.222656 13.191406 -7.703125 12.515625 -8.109375 C 11.847656 -8.523438 10.832031 -8.992188 9.46875 -9.515625 C 8.394531 -9.910156 7.421875 -10.320312 6.546875 -10.75 C 5.679688 -11.175781 4.941406 -11.6875 4.328125 -12.28125 C 3.722656 -12.875 3.253906 -13.582031 2.921875 -14.40625 C 2.585938 -15.226562 2.421875 -16.21875 2.421875 -17.375 C 2.421875 -19.625 3.257812 -21.40625 4.9375 -22.71875 C 6.613281 -24.03125 8.914062 -24.6875 11.84375 -24.6875 C 13.300781 -24.6875 14.703125 -24.554688 16.046875 -24.296875 C 17.390625 -24.035156 18.457031 -23.753906 19.25 -23.453125 L 18.0625 -18.15625 C 17.269531 -18.425781 16.40625 -18.664062 15.46875 -18.875 C 14.539062 -19.09375 13.5 -19.203125 12.34375 -19.203125 C 10.207031 -19.203125 9.140625 -18.609375 9.140625 -17.421875 C 9.140625 -17.140625 9.1875 -16.894531 9.28125 -16.6875 C 9.375 -16.476562 9.554688 -16.269531 9.828125 -16.0625 C 10.097656 -15.863281 10.46875 -15.648438 10.9375 -15.421875 C 11.414062 -15.203125 12.019531 -14.953125 12.75 -14.671875 C 14.25 -14.128906 15.484375 -13.585938 16.453125 -13.046875 C 17.429688 -12.515625 18.203125 -11.9375 18.765625 -11.3125 C 19.328125 -10.6875 19.722656 -9.992188 19.953125 -9.234375 C 20.179688 -8.472656 20.296875 -7.585938 20.296875 -6.578125 C 20.296875 -4.203125 19.40625 -2.40625 17.625 -1.1875 C 15.84375 0.03125 13.320312 0.640625 10.0625 0.640625 C 7.925781 0.640625 6.148438 0.457031 4.734375 0.09375 C 3.316406 -0.269531 2.332031 -0.578125 1.78125 -0.828125 L 2.921875 -6.359375 C 4.078125 -5.898438 5.265625 -5.539062 6.484375 -5.28125 C 7.710938 -5.019531 8.921875 -4.890625 10.109375 -4.890625 Z M 10.109375 -4.890625 "/></g></g></g><g fill="#ffffff" fill-opacity="1"><g transform="translate(136.582768, 210.493579)"><g><path d="M 2.96875 -30.03125 L 9.78125 -31.140625 L 9.78125 -24.046875 L 17.96875 -24.046875 L 17.96875 -18.375 L 9.78125 -18.375 L 9.78125 -9.921875 C 9.78125 -8.484375 10.03125 -7.335938 10.53125 -6.484375 C 11.039062 -5.640625 12.054688 -5.21875 13.578125 -5.21875 C 14.304688 -5.21875 15.054688 -5.285156 15.828125 -5.421875 C 16.609375 -5.554688 17.320312 -5.742188 17.96875 -5.984375 L 18.921875 -0.6875 C 18.097656 -0.351562 17.179688 -0.0664062 16.171875 0.171875 C 15.171875 0.421875 13.941406 0.546875 12.484375 0.546875 C 10.617188 0.546875 9.078125 0.296875 7.859375 -0.203125 C 6.640625 -0.703125 5.664062 -1.398438 4.9375 -2.296875 C 4.207031 -3.203125 3.695312 -4.296875 3.40625 -5.578125 C 3.113281 -6.859375 2.96875 -8.273438 2.96875 -9.828125 Z M 2.96875 -30.03125 "/></g></g></g><g fill="#ffffff" fill-opacity="1"><g transform="translate(156.875661, 210.493579)"><g><path d="M 23.734375 -0.828125 C 22.566406 -0.484375 21.066406 -0.171875 19.234375 0.109375 C 17.410156 0.398438 15.492188 0.546875 13.484375 0.546875 C 11.441406 0.546875 9.742188 0.273438 8.390625 -0.265625 C 7.035156 -0.816406 5.960938 -1.585938 5.171875 -2.578125 C 4.378906 -3.566406 3.8125 -4.75 3.46875 -6.125 C 3.132812 -7.5 2.96875 -9.007812 2.96875 -10.65625 L 2.96875 -24.046875 L 9.78125 -24.046875 L 9.78125 -11.46875 C 9.78125 -9.28125 10.066406 -7.695312 10.640625 -6.71875 C 11.222656 -5.738281 12.3125 -5.25 13.90625 -5.25 C 14.382812 -5.25 14.898438 -5.269531 15.453125 -5.3125 C 16.003906 -5.363281 16.492188 -5.421875 16.921875 -5.484375 L 16.921875 -24.046875 L 23.734375 -24.046875 Z M 23.734375 -0.828125 "/></g></g></g><g fill="#ffffff" fill-opacity="1"><g transform="translate(183.795736, 210.493579)"><g><path d="M 17.6875 -18.015625 C 17.082031 -18.160156 16.367188 -18.316406 15.546875 -18.484375 C 14.722656 -18.660156 13.835938 -18.75 12.890625 -18.75 C 12.460938 -18.75 11.953125 -18.707031 11.359375 -18.625 C 10.765625 -18.550781 10.316406 -18.46875 10.015625 -18.375 L 10.015625 0 L 3.203125 0 L 3.203125 -22.765625 C 4.421875 -23.191406 5.859375 -23.59375 7.515625 -23.96875 C 9.179688 -24.351562 11.035156 -24.546875 13.078125 -24.546875 C 13.441406 -24.546875 13.878906 -24.519531 14.390625 -24.46875 C 14.910156 -24.425781 15.429688 -24.367188 15.953125 -24.296875 C 16.472656 -24.222656 16.988281 -24.128906 17.5 -24.015625 C 18.019531 -23.910156 18.46875 -23.785156 18.84375 -23.640625 Z M 17.6875 -18.015625 "/></g></g></g><g fill="#ffffff" fill-opacity="1"><g transform="translate(203.083124, 210.493579)"><g><path d="M 16.40625 -12.75 C 16.40625 -14.945312 16.125 -16.503906 15.5625 -17.421875 C 15 -18.335938 14.035156 -18.796875 12.671875 -18.796875 C 12.242188 -18.796875 11.800781 -18.769531 11.34375 -18.71875 C 10.882812 -18.675781 10.441406 -18.625 10.015625 -18.5625 L 10.015625 0 L 3.203125 0 L 3.203125 -23.21875 C 3.773438 -23.375 4.453125 -23.535156 5.234375 -23.703125 C 6.015625 -23.867188 6.835938 -24.019531 7.703125 -24.15625 C 8.566406 -24.300781 9.457031 -24.410156 10.375 -24.484375 C 11.289062 -24.554688 12.191406 -24.59375 13.078125 -24.59375 C 14.816406 -24.59375 16.222656 -24.367188 17.296875 -23.921875 C 18.378906 -23.484375 19.273438 -22.960938 19.984375 -22.359375 C 20.953125 -23.054688 22.066406 -23.601562 23.328125 -24 C 24.597656 -24.394531 25.769531 -24.59375 26.84375 -24.59375 C 28.757812 -24.59375 30.332031 -24.328125 31.5625 -23.796875 C 32.800781 -23.265625 33.785156 -22.507812 34.515625 -21.53125 C 35.242188 -20.5625 35.742188 -19.40625 36.015625 -18.0625 C 36.296875 -16.71875 36.4375 -15.222656 36.4375 -13.578125 L 36.4375 0 L 29.625 0 L 29.625 -12.75 C 29.625 -14.945312 29.34375 -16.503906 28.78125 -17.421875 C 28.21875 -18.335938 27.25 -18.796875 25.875 -18.796875 C 25.507812 -18.796875 25 -18.703125 24.34375 -18.515625 C 23.6875 -18.328125 23.144531 -18.097656 22.71875 -17.828125 C 22.9375 -17.128906 23.070312 -16.390625 23.125 -15.609375 C 23.1875 -14.835938 23.21875 -14.007812 23.21875 -13.125 L 23.21875 0 L 16.40625 0 Z M 16.40625 -12.75 "/></g></g></g><g fill="#ffffff" fill-opacity="1"><g transform="translate(242.480596, 210.493579)"><g><path d="M 13.625 -35.484375 C 14.90625 -35.484375 16.078125 -35.351562 17.140625 -35.09375 C 18.210938 -34.832031 19.035156 -34.578125 19.609375 -34.328125 L 18.28125 -28.890625 C 17.675781 -29.171875 17.015625 -29.378906 16.296875 -29.515625 C 15.578125 -29.648438 14.914062 -29.71875 14.3125 -29.71875 C 13.488281 -29.71875 12.796875 -29.601562 12.234375 -29.375 C 11.671875 -29.144531 11.226562 -28.832031 10.90625 -28.4375 C 10.582031 -28.039062 10.351562 -27.566406 10.21875 -27.015625 C 10.082031 -26.472656 10.015625 -25.878906 10.015625 -25.234375 L 10.015625 -24.046875 L 18.421875 -24.046875 L 18.421875 -18.375 L 10.015625 -18.375 L 10.015625 0 L 3.203125 0 L 3.203125 -25.328125 C 3.203125 -28.429688 4.078125 -30.898438 5.828125 -32.734375 C 7.578125 -34.566406 10.175781 -35.484375 13.625 -35.484375 Z M 13.625 -35.484375 "/></g></g></g><g fill="#ffffff" fill-opacity="1"><g transform="translate(261.767984, 210.493579)"><g><path d="M 17.6875 -18.015625 C 17.082031 -18.160156 16.367188 -18.316406 15.546875 -18.484375 C 14.722656 -18.660156 13.835938 -18.75 12.890625 -18.75 C 12.460938 -18.75 11.953125 -18.707031 11.359375 -18.625 C 10.765625 -18.550781 10.316406 -18.46875 10.015625 -18.375 L 10.015625 0 L 3.203125 0 L 3.203125 -22.765625 C 4.421875 -23.191406 5.859375 -23.59375 7.515625 -23.96875 C 9.179688 -24.351562 11.035156 -24.546875 13.078125 -24.546875 C 13.441406 -24.546875 13.878906 -24.519531 14.390625 -24.46875 C 14.910156 -24.425781 15.429688 -24.367188 15.953125 -24.296875 C 16.472656 -24.222656 16.988281 -24.128906 17.5 -24.015625 C 18.019531 -23.910156 18.46875 -23.785156 18.84375 -23.640625 Z M 17.6875 -18.015625 "/></g></g></g><g fill="#ffffff" fill-opacity="1"><g transform="translate(281.055373, 210.493579)"><g><path d="M 2.0625 -11.84375 C 2.0625 -13.976562 2.382812 -15.84375 3.03125 -17.4375 C 3.6875 -19.039062 4.546875 -20.375 5.609375 -21.4375 C 6.679688 -22.507812 7.910156 -23.316406 9.296875 -23.859375 C 10.691406 -24.410156 12.117188 -24.6875 13.578125 -24.6875 C 16.992188 -24.6875 19.691406 -23.640625 21.671875 -21.546875 C 23.648438 -19.460938 24.640625 -16.394531 24.640625 -12.34375 C 24.640625 -11.945312 24.625 -11.507812 24.59375 -11.03125 C 24.5625 -10.5625 24.53125 -10.144531 24.5 -9.78125 L 9.046875 -9.78125 C 9.203125 -8.382812 9.859375 -7.273438 11.015625 -6.453125 C 12.171875 -5.628906 13.726562 -5.21875 15.6875 -5.21875 C 16.9375 -5.21875 18.160156 -5.328125 19.359375 -5.546875 C 20.566406 -5.773438 21.550781 -6.0625 22.3125 -6.40625 L 23.21875 -0.875 C 22.851562 -0.6875 22.363281 -0.5 21.75 -0.3125 C 21.144531 -0.132812 20.46875 0.0195312 19.71875 0.15625 C 18.976562 0.289062 18.179688 0.40625 17.328125 0.5 C 16.472656 0.59375 15.617188 0.640625 14.765625 0.640625 C 12.597656 0.640625 10.710938 0.320312 9.109375 -0.3125 C 7.515625 -0.957031 6.191406 -1.835938 5.140625 -2.953125 C 4.085938 -4.066406 3.3125 -5.382812 2.8125 -6.90625 C 2.3125 -8.425781 2.0625 -10.070312 2.0625 -11.84375 Z M 18.0625 -14.453125 C 18.03125 -15.023438 17.929688 -15.585938 17.765625 -16.140625 C 17.597656 -16.691406 17.335938 -17.175781 16.984375 -17.59375 C 16.628906 -18.019531 16.1875 -18.367188 15.65625 -18.640625 C 15.125 -18.921875 14.460938 -19.0625 13.671875 -19.0625 C 12.910156 -19.0625 12.253906 -18.929688 11.703125 -18.671875 C 11.148438 -18.410156 10.691406 -18.066406 10.328125 -17.640625 C 9.960938 -17.210938 9.679688 -16.71875 9.484375 -16.15625 C 9.285156 -15.59375 9.140625 -15.023438 9.046875 -14.453125 Z M 18.0625 -14.453125 "/></g></g></g><g fill="#ffffff" fill-opacity="1"><g transform="translate(307.746944, 210.493579)"><g><path d="M 10.015625 0 L 3.203125 0 L 3.203125 -24.046875 L 10.015625 -24.046875 Z M 10.65625 -31 C 10.65625 -29.75 10.25 -28.765625 9.4375 -28.046875 C 8.632812 -27.328125 7.679688 -26.96875 6.578125 -26.96875 C 5.484375 -26.96875 4.53125 -27.328125 3.71875 -28.046875 C 2.914062 -28.765625 2.515625 -29.75 2.515625 -31 C 2.515625 -32.25 2.914062 -33.226562 3.71875 -33.9375 C 4.53125 -34.65625 5.484375 -35.015625 6.578125 -35.015625 C 7.679688 -35.015625 8.632812 -34.65625 9.4375 -33.9375 C 10.25 -33.226562 10.65625 -32.25 10.65625 -31 Z M 10.65625 -31 "/></g></g></g><g clip-path="url(#03a5432a9b)"><path fill="#ffffff" d="M 113.300781 182.269531 L 107.863281 176.832031 L 86.113281 155.078125 C 85.855469 154.824219 85.5625 154.628906 85.230469 154.488281 C 84.894531 154.351562 84.550781 154.28125 84.1875 154.28125 C 83.828125 154.28125 83.480469 154.351562 83.148438 154.488281 C 82.816406 154.628906 82.523438 154.824219 82.265625 155.078125 L 60.515625 176.832031 L 55.074219 182.269531 C 54.828125 182.527344 54.636719 182.820312 54.507812 183.148438 C 54.375 183.480469 54.308594 183.824219 54.3125 184.179688 C 54.316406 184.539062 54.386719 184.878906 54.523438 185.210938 C 54.660156 185.539062 54.855469 185.828125 55.109375 186.082031 C 55.359375 186.332031 55.652344 186.527344 55.980469 186.664062 C 56.308594 186.804688 56.652344 186.875 57.007812 186.878906 C 57.363281 186.878906 57.707031 186.816406 58.039062 186.683594 C 58.371094 186.550781 58.664062 186.363281 58.921875 186.113281 L 59.71875 185.316406 L 59.71875 211.382812 C 59.71875 211.742188 59.785156 212.089844 59.925781 212.421875 C 60.0625 212.753906 60.257812 213.050781 60.515625 213.304688 C 60.769531 213.558594 61.0625 213.757812 61.394531 213.894531 C 61.730469 214.03125 62.074219 214.101562 62.4375 214.101562 L 105.941406 214.101562 C 106.300781 214.101562 106.648438 214.03125 106.980469 213.894531 C 107.316406 213.757812 107.609375 213.558594 107.863281 213.304688 C 108.121094 213.050781 108.316406 212.753906 108.453125 212.421875 C 108.589844 212.089844 108.660156 211.742188 108.660156 211.382812 L 108.660156 185.316406 L 109.457031 186.113281 C 109.714844 186.363281 110.007812 186.550781 110.339844 186.683594 C 110.667969 186.816406 111.011719 186.878906 111.371094 186.875 C 111.726562 186.875 112.070312 186.804688 112.398438 186.664062 C 112.726562 186.527344 113.015625 186.332031 113.269531 186.082031 C 113.519531 185.828125 113.714844 185.539062 113.855469 185.210938 C 113.992188 184.878906 114.0625 184.539062 114.066406 184.179688 C 114.066406 183.824219 114.003906 183.480469 113.871094 183.148438 C 113.738281 182.820312 113.550781 182.527344 113.300781 182.269531 Z M 113.300781 182.269531 " fill-opacity="1" fill-rule="nonzero"/></g><path fill="#4c2a93" d="M 92.125 192.832031 C 89.394531 196.148438 89.394531 198.976562 89.394531 198.976562 L 89.394531 200.894531 L 79.492188 200.894531 L 79.492188 198.976562 C 79.492188 198.976562 79.492188 196.148438 76.761719 192.832031 C 76.761719 192.832031 73.378906 188.886719 75.289062 183.769531 C 77.144531 178.789062 81.480469 177.21875 84.222656 177.21875 C 84.296875 177.21875 84.371094 177.222656 84.445312 177.222656 C 84.515625 177.222656 84.589844 177.21875 84.664062 177.21875 C 87.40625 177.21875 91.742188 178.789062 93.601562 183.769531 C 95.507812 188.886719 92.125 192.832031 92.125 192.832031 Z M 95.980469 187.425781 C 96.046875 185.976562 95.8125 184.535156 95.292969 183.140625 C 94.78125 181.769531 94.074219 180.539062 93.191406 179.484375 C 92.398438 178.539062 91.460938 177.730469 90.40625 177.085938 C 89.480469 176.519531 88.480469 176.085938 87.433594 175.800781 C 86.507812 175.546875 85.550781 175.414062 84.664062 175.414062 C 84.589844 175.414062 84.515625 175.414062 84.445312 175.414062 C 84.371094 175.414062 84.296875 175.414062 84.222656 175.414062 C 83.335938 175.414062 82.378906 175.546875 81.453125 175.800781 C 80.40625 176.085938 79.40625 176.519531 78.480469 177.085938 C 77.429688 177.730469 76.492188 178.535156 75.699219 179.484375 C 74.8125 180.539062 74.105469 181.769531 73.59375 183.140625 C 73.074219 184.535156 72.84375 185.976562 72.910156 187.425781 C 72.960938 188.578125 73.199219 189.730469 73.617188 190.851562 C 74.289062 192.65625 75.210938 193.796875 75.375 193.988281 C 76.589844 195.46875 77.160156 196.808594 77.421875 197.675781 C 77.664062 198.460938 77.6875 198.972656 77.6875 198.976562 L 77.6875 201.40625 C 77.6875 202.121094 78.265625 202.703125 78.980469 202.703125 L 89.90625 202.703125 C 90.621094 202.703125 91.203125 202.121094 91.203125 201.40625 L 91.203125 198.996094 C 91.203125 198.933594 91.234375 198.371094 91.515625 197.519531 C 91.785156 196.6875 92.351562 195.402344 93.515625 193.988281 C 93.675781 193.796875 94.597656 192.65625 95.269531 190.851562 C 95.691406 189.730469 95.929688 188.578125 95.980469 187.425781 " fill-opacity="1" fill-rule="nonzero"/><g clip-path="url(#3ed1c1044d)"><path fill="#4c2a93" d="M 85.347656 165.421875 C 85.347656 164.925781 84.941406 164.519531 84.445312 164.519531 C 83.945312 164.519531 83.539062 164.925781 83.539062 165.421875 L 83.539062 171.71875 L 85.347656 171.71875 L 85.347656 165.421875 " fill-opacity="1" fill-rule="nonzero"/></g><g clip-path="url(#f74869ad0e)"><path fill="#4c2a93" d="M 105.929688 186.003906 L 99.632812 186.003906 L 99.632812 187.808594 L 105.929688 187.808594 C 106.425781 187.808594 106.832031 187.40625 106.832031 186.90625 C 106.832031 186.410156 106.425781 186.003906 105.929688 186.003906 " fill-opacity="1" fill-rule="nonzero"/></g><path fill="#4c2a93" d="M 95.824219 197.007812 L 94.546875 198.289062 L 98.996094 202.738281 C 99.351562 203.089844 99.921875 203.089844 100.273438 202.738281 C 100.628906 202.382812 100.628906 201.8125 100.273438 201.460938 L 95.824219 197.007812 " fill-opacity="1" fill-rule="nonzero"/><path fill="#4c2a93" d="M 100.273438 172.355469 C 100.628906 172 100.628906 171.429688 100.273438 171.078125 C 99.921875 170.722656 99.351562 170.722656 98.996094 171.078125 L 94.546875 175.527344 L 95.824219 176.804688 L 100.273438 172.355469 " fill-opacity="1" fill-rule="nonzero"/><g clip-path="url(#77671a3942)"><path fill="#4c2a93" d="M 69.253906 186.003906 L 62.960938 186.003906 C 62.460938 186.003906 62.058594 186.410156 62.058594 186.90625 C 62.058594 187.40625 62.460938 187.808594 62.960938 187.808594 L 69.253906 187.808594 L 69.253906 186.003906 " fill-opacity="1" fill-rule="nonzero"/></g><path fill="#4c2a93" d="M 68.613281 201.460938 C 68.261719 201.8125 68.261719 202.382812 68.613281 202.738281 C 68.964844 203.089844 69.539062 203.089844 69.890625 202.738281 L 74.34375 198.289062 L 73.0625 197.007812 L 68.613281 201.460938 " fill-opacity="1" fill-rule="nonzero"/><path fill="#4c2a93" d="M 73.0625 176.804688 L 74.34375 175.527344 L 69.890625 171.078125 C 69.539062 170.722656 68.964844 170.722656 68.613281 171.078125 C 68.261719 171.429688 68.261719 172 68.613281 172.355469 L 73.0625 176.804688 " fill-opacity="1" fill-rule="nonzero"/><path fill="#4c2a93" d="M 84.269531 179.527344 C 84.230469 179.003906 83.75 178.625 83.230469 178.710938 C 80.8125 179.113281 79.320312 180.324219 78.464844 181.332031 C 78.007812 181.871094 77.6875 182.402344 77.46875 182.835938 C 77.214844 183.339844 77.484375 183.949219 78.027344 184.097656 L 78.054688 184.105469 C 78.460938 184.214844 78.890625 184.023438 79.078125 183.644531 C 79.566406 182.679688 80.796875 180.953125 83.523438 180.492188 C 83.976562 180.417969 84.300781 180.015625 84.269531 179.554688 L 84.269531 179.527344 " fill-opacity="1" fill-rule="nonzero"/><path fill="#4c2a93" d="M 89.503906 203.546875 L 79.324219 203.546875 C 78.84375 203.546875 78.453125 203.953125 78.453125 204.449219 C 78.453125 204.949219 78.84375 205.355469 79.324219 205.355469 L 89.503906 205.355469 C 89.984375 205.355469 90.375 204.949219 90.375 204.449219 C 90.375 203.953125 89.984375 203.546875 89.503906 203.546875 " fill-opacity="1" fill-rule="nonzero"/><path fill="#4c2a93" d="M 89.503906 206.199219 L 79.324219 206.199219 C 78.84375 206.199219 78.453125 206.605469 78.453125 207.101562 C 78.453125 207.601562 78.84375 208.007812 79.324219 208.007812 L 89.503906 208.007812 C 89.984375 208.007812 90.375 207.601562 90.375 207.101562 C 90.375 206.605469 89.984375 206.199219 89.503906 206.199219 " fill-opacity="1" fill-rule="nonzero"/><g clip-path="url(#da5e42bdad)"><path fill="#4c2a93" d="M 89 208.851562 L 79.828125 208.851562 C 79.5625 208.851562 79.425781 209.175781 79.617188 209.363281 L 81.136719 210.882812 C 81.578125 211.328125 82.152344 211.625 82.773438 211.722656 C 83.195312 211.789062 83.746094 211.84375 84.414062 211.84375 C 85.085938 211.84375 85.632812 211.789062 86.054688 211.722656 C 86.675781 211.625 87.25 211.328125 87.691406 210.882812 L 89.210938 209.363281 C 89.402344 209.175781 89.265625 208.851562 89 208.851562 " fill-opacity="1" fill-rule="nonzero"/></g><g clip-path="url(#736b2eccb2)"><g clip-path="url(#6a786cc3e5)"><path fill="#4c2a93" d="M 73.6875 176.289062 L 95.210938 176.289062 L 95.210938 203.191406 L 73.6875 203.191406 Z M 73.6875 176.289062 " fill-opacity="1" fill-rule="nonzero"/></g></g></svg>