<?xml version="1.0" standalone="no"?>
<!DOCTYPE svg PUBLIC "-//W3C//DTD SVG 20010904//EN"
 "http://www.w3.org/TR/2001/REC-SVG-20010904/DTD/svg10.dtd">
<svg version="1.0" xmlns="http://www.w3.org/2000/svg"
 width="700.000000pt" height="700.000000pt" viewBox="0 0 700.000000 700.000000"
 preserveAspectRatio="xMidYMid meet">
<metadata>
Created by potrace 1.14, written by Peter Selinger 2001-2017
</metadata>
<g transform="translate(0.000000,700.000000) scale(0.100000,-0.100000)"
fill="#000000" stroke="none">
<path d="M3420 6817 c-26 -7 -62 -23 -80 -34 -19 -12 -733 -721 -1586 -1575
-1718 -1719 -1589 -1580 -1589 -1718 0 -84 26 -151 82 -211 61 -66 128 -94
223 -93 96 0 150 24 230 100 l60 57 2 -1479 3 -1479 33 -67 c35 -72 77 -113
152 -150 l45 -23 2505 0 2505 0 45 23 c75 37 117 78 152 150 l33 67 3 1479 2
1479 60 -57 c80 -76 134 -100 230 -100 95 -1 162 27 223 93 56 60 82 127 82
211 0 138 129 -2 -1594 1723 -1240 1241 -1566 1563 -1606 1582 -61 30 -153 40
-215 22z m150 -1152 c16 -8 34 -24 40 -34 6 -13 10 -154 10 -385 l0 -366 -95
0 -95 0 0 364 c0 356 0 364 21 390 36 45 73 55 119 31z m-1435 -955 l260 -260
-68 -67 -67 -68 -260 260 c-258 259 -260 261 -260 303 0 59 33 92 92 92 42 0
44 -2 303 -260z m3156 231 c32 -33 37 -67 15 -109 -8 -15 -125 -137 -260 -272
l-246 -245 -70 70 -70 71 258 257 c257 255 259 257 301 257 34 0 49 -6 72 -29z
m-1506 -505 c458 -103 810 -421 959 -866 89 -266 89 -524 0 -790 -46 -139
-109 -255 -211 -392 -96 -128 -149 -214 -188 -307 -38 -91 -65 -266 -65 -419
0 -152 -12 -184 -80 -219 l-44 -23 -631 0 c-696 0 -671 -2 -719 63 -19 26 -22
47 -27 225 -5 188 -7 201 -38 292 -42 124 -103 235 -203 368 -124 166 -171
253 -229 422 -84 244 -85 518 -3 767 110 334 351 617 651 767 110 55 240 99
343 116 41 6 82 13 90 15 39 10 332 -5 395 -19z m-1955 -1251 l0 -95 -366 0
c-231 0 -372 4 -385 10 -29 16 -51 67 -44 100 4 16 20 41 37 55 l30 25 364 0
364 0 0 -95z m4166 62 c34 -39 33 -96 -2 -131 l-27 -26 -368 0 -369 0 0 95 0
96 371 -3 371 -3 24 -28z m-3846 -1583 c-135 -135 -257 -252 -272 -260 -40
-21 -73 -17 -107 12 -26 22 -31 33 -31 72 l0 45 257 259 257 258 71 -70 70
-70 -245 -246z m3170 -178 c0 -53 -43 -96 -96 -96 -36 0 -50 12 -301 262
l-263 262 67 68 68 68 262 -263 c251 -251 263 -264 263 -301z m-1186 -177 c38
-18 60 -71 46 -114 -22 -68 9 -65 -653 -65 -409 0 -605 3 -619 11 -32 17 -51
74 -38 115 22 65 3 63 652 64 418 0 594 -3 612 -11z m8 -300 c26 -14 48 -67
41 -102 -3 -15 -19 -38 -35 -52 l-30 -25 -592 0 c-590 0 -593 0 -620 21 -38
30 -49 64 -36 105 22 67 -8 64 653 64 409 0 605 -3 619 -11z m-81 -295 c11
-13 -3 -31 -102 -130 -73 -74 -132 -123 -164 -139 -115 -57 -427 -56 -543 1
-33 16 -93 64 -154 122 -111 107 -125 126 -107 148 10 12 92 14 534 14 461 0
524 -2 536 -16z"/>
</g>
</svg>
