<svg xmlns="http://www.w3.org/2000/svg" xmlns:xlink="http://www.w3.org/1999/xlink" width="500" zoomAndPan="magnify" viewBox="0 0 375 374.999991" height="500" preserveAspectRatio="xMidYMid meet" version="1.0"><defs><clipPath id="0ddc788db4"><path d="M 18 18 L 356.292969 18 L 356.292969 356.292969 L 18 356.292969 Z M 18 18 " clip-rule="nonzero"/></clipPath><clipPath id="4ed2f672fb"><path d="M 183 76.703125 L 195 76.703125 L 195 118 L 183 118 Z M 183 76.703125 " clip-rule="nonzero"/></clipPath><clipPath id="24a744cdd7"><path d="M 274.898438 198 L 315.664062 198 L 315.664062 209 L 274.898438 209 Z M 274.898438 198 " clip-rule="nonzero"/></clipPath><clipPath id="190fc660b4"><path d="M 62.160156 198 L 103 198 L 103 209 L 62.160156 209 Z M 62.160156 198 " clip-rule="nonzero"/></clipPath><clipPath id="da1195d043"><path d="M 161 327 L 217 327 L 217 344.222656 L 161 344.222656 Z M 161 327 " clip-rule="nonzero"/></clipPath><clipPath id="b0d3f6d0ee"><path d="M 130.382812 146 L 247.484375 146 L 247.484375 292.960938 L 130.382812 292.960938 Z M 130.382812 146 " clip-rule="nonzero"/></clipPath><clipPath id="c2d7f7caa9"><path d="M 130.84375 188.441406 C 130.84375 188.371094 131.269531 186.453125 131.410156 185.457031 C 131.625 184.535156 132.050781 182.617188 132.050781 182.546875 C 132.050781 182.476562 132.902344 180.699219 133.328125 179.847656 C 133.753906 178.925781 134.535156 177.148438 134.605469 177.078125 C 134.605469 177.078125 135.882812 175.515625 136.453125 174.804688 C 137.089844 174.023438 138.371094 172.460938 138.371094 172.460938 C 138.371094 172.390625 140.074219 171.113281 140.785156 170.617188 C 141.28125 170.261719 141.707031 170.117188 142.132812 169.621094 C 142.558594 169.054688 142.628906 168.128906 143.128906 167.347656 C 143.765625 166.140625 146.109375 163.371094 146.109375 163.371094 C 146.109375 163.371094 147.246094 161.597656 148.667969 160.601562 C 151.863281 158.1875 164.289062 154.425781 167.203125 151.65625 C 168.480469 150.449219 167.699219 149.097656 169.121094 148.246094 C 172.457031 146.042969 185.453125 145.832031 192.339844 146.328125 C 197.953125 146.824219 205.410156 149.667969 207.539062 149.949219 C 208.035156 150.019531 208.105469 150.019531 208.53125 150.019531 C 209.242188 150.019531 211.230469 150.09375 211.300781 150.164062 C 211.300781 150.164062 213.007812 150.660156 213.929688 150.875 C 214.78125 151.15625 216.488281 151.65625 216.488281 151.65625 C 216.558594 151.726562 221.316406 154.070312 222.734375 155.632812 C 223.941406 156.910156 224.296875 158.96875 225.152344 159.820312 C 225.71875 160.390625 226.996094 160.816406 226.996094 160.816406 C 227.066406 160.816406 228.417969 162.023438 229.128906 162.660156 C 229.835938 163.230469 231.1875 164.4375 231.1875 164.507812 C 231.257812 164.507812 232.253906 166.070312 232.820312 166.78125 C 233.246094 167.421875 233.601562 167.988281 234.097656 168.628906 C 234.59375 169.265625 235.234375 169.976562 235.804688 170.617188 C 236.441406 171.253906 237.648438 172.675781 237.648438 172.675781 C 237.648438 172.675781 238.644531 174.523438 238.925781 175.160156 C 239.140625 175.515625 239.425781 176.011719 239.425781 176.011719 C 239.425781 176.011719 239.425781 176.082031 239.425781 176.082031 C 239.425781 176.082031 240.207031 177.574219 240.207031 177.574219 C 240.207031 177.574219 240.277344 177.859375 240.347656 178.074219 C 240.5625 178.425781 241.554688 179.777344 241.554688 179.777344 C 241.554688 179.847656 242.195312 181.550781 242.550781 182.476562 C 242.90625 183.328125 243.542969 185.03125 243.542969 185.101562 C 243.542969 185.101562 243.613281 186.523438 243.828125 187.019531 C 243.898438 187.445312 244.113281 187.660156 244.324219 188.085938 C 244.679688 188.726562 245.601562 190.570312 245.675781 190.570312 C 245.675781 190.640625 246.101562 192.417969 246.3125 193.339844 C 246.527344 194.265625 247.023438 196.039062 247.023438 196.039062 C 247.023438 196.109375 247.023438 197.957031 247.023438 198.878906 C 247.023438 199.804688 247.023438 201.71875 247.023438 201.71875 C 247.023438 201.792969 246.527344 203.636719 246.3125 204.488281 C 246.171875 205.199219 245.675781 206.125 245.816406 206.550781 C 245.886719 206.761719 246.171875 206.761719 246.242188 207.046875 C 246.527344 208.183594 244.039062 213.082031 244.253906 215.710938 C 244.394531 218.054688 246.953125 219.402344 246.738281 222.101562 C 246.3125 227.214844 238.644531 239.289062 234.242188 243.832031 C 231.472656 246.746094 226.003906 248.378906 225.578125 249.300781 C 225.503906 249.441406 225.71875 249.726562 225.71875 249.726562 C 225.71875 249.796875 225.578125 251.21875 225.71875 252.496094 C 226.074219 255.054688 228.84375 260.023438 228.703125 264.425781 C 228.417969 270.25 226.570312 279.410156 222.027344 284.027344 C 217.054688 289.070312 198.804688 290.988281 198.660156 292.195312 C 198.660156 292.40625 199.65625 292.691406 199.65625 292.761719 C 199.585938 292.761719 198.875 292.265625 198.519531 292.265625 C 198.023438 292.265625 197.527344 292.90625 196.886719 292.832031 C 195.75 292.691406 194.1875 290.632812 192.339844 289.636719 C 189.996094 288.289062 185.878906 286.15625 183.75 285.945312 C 182.613281 285.875 181.972656 286.441406 180.980469 286.65625 C 180.054688 286.867188 178.066406 287.363281 178.066406 287.363281 C 177.996094 287.363281 176.007812 287.363281 175.015625 287.363281 C 174.019531 287.363281 172.03125 287.363281 171.960938 287.363281 C 171.960938 287.363281 169.972656 286.867188 169.046875 286.65625 C 168.054688 286.371094 166.136719 285.945312 166.066406 285.945312 C 165.996094 285.875 164.289062 284.949219 163.367188 284.523438 C 162.445312 284.027344 160.738281 283.105469 160.667969 283.105469 C 160.667969 283.03125 159.175781 281.753906 158.394531 281.042969 C 157.613281 280.40625 156.125 279.054688 156.125 279.054688 C 156.125 278.984375 154.988281 277.351562 154.417969 276.570312 C 153.851562 275.71875 152.714844 274.085938 152.644531 274.015625 C 152.644531 274.015625 151.933594 272.167969 151.578125 271.171875 C 151.222656 270.25 150.511719 268.402344 150.511719 268.332031 C 150.511719 268.332031 150.300781 266.34375 150.160156 265.351562 C 150.015625 264.355469 149.804688 262.367188 149.804688 262.296875 C 149.804688 262.296875 149.660156 261.089844 149.804688 260.023438 C 150.085938 257.894531 153.070312 253.277344 152.359375 250.011719 C 151.4375 246.105469 145.96875 242.839844 142.914062 238.507812 C 139.222656 233.324219 133.894531 227.214844 132.191406 220.894531 C 130.558594 214.503906 132.832031 200.300781 132.757812 200.230469 C 132.757812 200.15625 132.261719 198.3125 131.976562 197.316406 C 131.695312 196.394531 131.125 194.476562 131.125 194.40625 C 131.125 194.40625 130.984375 192.417969 130.984375 191.421875 C 130.914062 190.429688 130.84375 188.441406 130.84375 188.441406 M 239.425781 176.011719 C 239.425781 176.011719 239.425781 176.082031 239.425781 176.082031 C 239.425781 176.082031 239.425781 176.011719 239.425781 176.011719 " clip-rule="nonzero"/></clipPath></defs><rect x="-37.5" width="450" fill="#ffffff" y="-37.499999" height="449.999989" fill-opacity="0"/><rect x="-37.5" width="450" fill="#000000" y="-37.499999" height="449.999989" fill-opacity="0"/><g clip-path="url(#0ddc788db4)"><path fill="#ffffff" d="M 352.296875 177.351562 L 198.351562 23.40625 C 197.636719 22.691406 196.859375 22.054688 196.019531 21.492188 C 195.179688 20.929688 194.292969 20.457031 193.359375 20.070312 C 192.425781 19.683594 191.460938 19.390625 190.46875 19.195312 C 189.480469 18.996094 188.476562 18.898438 187.46875 18.898438 C 186.457031 18.898438 185.457031 18.996094 184.464844 19.195312 C 183.472656 19.390625 182.511719 19.683594 181.578125 20.070312 C 180.644531 20.457031 179.757812 20.929688 178.917969 21.492188 C 178.074219 22.054688 177.296875 22.691406 176.582031 23.40625 L 22.636719 177.351562 C 21.941406 178.074219 21.324219 178.851562 20.78125 179.691406 C 20.238281 180.53125 19.78125 181.414062 19.410156 182.34375 C 19.042969 183.269531 18.765625 184.226562 18.578125 185.210938 C 18.394531 186.191406 18.308594 187.183594 18.316406 188.183594 C 18.324219 189.183594 18.429688 190.171875 18.632812 191.148438 C 18.832031 192.128906 19.125 193.078125 19.511719 194 C 19.898438 194.921875 20.371094 195.800781 20.929688 196.628906 C 21.484375 197.457031 22.117188 198.226562 22.824219 198.933594 C 23.53125 199.640625 24.300781 200.273438 25.128906 200.828125 C 25.960938 201.386719 26.835938 201.859375 27.757812 202.246094 C 28.679688 202.632812 29.628906 202.925781 30.609375 203.128906 C 31.585938 203.328125 32.578125 203.433594 33.578125 203.441406 C 34.574219 203.453125 35.566406 203.363281 36.550781 203.179688 C 37.53125 202.996094 38.488281 202.71875 39.414062 202.347656 C 40.34375 201.976562 41.226562 201.519531 42.066406 200.976562 C 42.90625 200.433594 43.6875 199.816406 44.40625 199.121094 L 48.914062 194.609375 L 48.914062 342.183594 C 48.914062 343.195312 49.015625 344.195312 49.210938 345.1875 C 49.410156 346.179688 49.699219 347.140625 50.085938 348.074219 C 50.472656 349.007812 50.949219 349.898438 51.511719 350.738281 C 52.070312 351.578125 52.710938 352.355469 53.425781 353.070312 C 54.140625 353.785156 54.917969 354.421875 55.757812 354.984375 C 56.597656 355.546875 57.484375 356.019531 58.417969 356.40625 C 59.351562 356.792969 60.316406 357.085938 61.308594 357.28125 C 62.296875 357.480469 63.300781 357.578125 64.308594 357.578125 L 310.625 357.578125 C 311.636719 357.578125 312.636719 357.480469 313.628906 357.28125 C 314.621094 357.085938 315.582031 356.792969 316.515625 356.40625 C 317.449219 356.019531 318.335938 355.546875 319.179688 354.984375 C 320.019531 354.421875 320.796875 353.785156 321.511719 353.070312 C 322.226562 352.355469 322.863281 351.578125 323.425781 350.738281 C 323.988281 349.898438 324.460938 349.007812 324.847656 348.074219 C 325.234375 347.140625 325.527344 346.179688 325.722656 345.1875 C 325.921875 344.195312 326.019531 343.195312 326.019531 342.183594 L 326.019531 194.609375 L 330.53125 199.121094 C 331.25 199.816406 332.027344 200.433594 332.867188 200.976562 C 333.707031 201.519531 334.589844 201.976562 335.519531 202.347656 C 336.449219 202.71875 337.402344 202.996094 338.386719 203.179688 C 339.367188 203.363281 340.359375 203.449219 341.359375 203.441406 C 342.359375 203.433594 343.347656 203.328125 344.328125 203.128906 C 345.304688 202.925781 346.257812 202.632812 347.179688 202.246094 C 348.101562 201.859375 348.976562 201.386719 349.804688 200.828125 C 350.636719 200.273438 351.402344 199.640625 352.109375 198.933594 C 352.816406 198.226562 353.449219 197.457031 354.007812 196.628906 C 354.5625 195.800781 355.035156 194.921875 355.421875 194 C 355.808594 193.078125 356.101562 192.128906 356.304688 191.148438 C 356.503906 190.171875 356.609375 189.179688 356.621094 188.183594 C 356.628906 187.183594 356.539062 186.191406 356.355469 185.210938 C 356.171875 184.226562 355.894531 183.269531 355.523438 182.34375 C 355.152344 181.414062 354.695312 180.53125 354.152344 179.691406 C 353.613281 178.851562 352.992188 178.074219 352.296875 177.351562 Z M 352.296875 177.351562 " fill-opacity="1" fill-rule="nonzero"/></g><path fill="#4c2a93" d="M 232.410156 237.152344 C 216.945312 255.933594 216.945312 271.949219 216.945312 271.949219 L 216.945312 282.8125 L 160.882812 282.8125 L 160.882812 271.949219 C 160.882812 271.949219 160.882812 255.933594 145.417969 237.152344 C 145.417969 237.152344 126.269531 214.816406 137.070312 185.851562 C 147.585938 157.652344 172.144531 148.761719 187.660156 148.765625 C 188.085938 148.765625 188.503906 148.773438 188.910156 148.785156 C 189.324219 148.773438 189.738281 148.765625 190.164062 148.765625 C 205.683594 148.765625 230.242188 157.65625 240.753906 185.851562 C 251.554688 214.816406 232.410156 237.152344 232.410156 237.152344 Z M 254.226562 206.546875 C 254.59375 198.34375 253.285156 190.179688 250.335938 182.277344 C 247.445312 174.519531 243.441406 167.5625 238.433594 161.589844 C 233.9375 156.226562 228.632812 151.65625 222.671875 148.011719 C 217.4375 144.804688 211.773438 142.355469 205.839844 140.730469 C 200.605469 139.296875 195.183594 138.535156 190.164062 138.535156 C 189.746094 138.535156 189.324219 138.542969 188.910156 138.554688 C 188.5 138.542969 188.082031 138.535156 187.660156 138.535156 C 182.640625 138.535156 177.222656 139.296875 171.984375 140.730469 C 166.054688 142.355469 160.390625 144.804688 155.152344 148.011719 C 149.191406 151.65625 143.886719 156.222656 139.390625 161.589844 C 134.386719 167.5625 130.378906 174.519531 127.484375 182.277344 C 124.539062 190.179688 123.234375 198.34375 123.601562 206.546875 C 123.890625 213.070312 125.242188 219.597656 127.613281 225.941406 C 131.421875 236.152344 136.640625 242.609375 137.566406 243.707031 C 144.453125 252.085938 147.671875 259.675781 149.164062 264.574219 C 150.519531 269.027344 150.652344 271.925781 150.652344 271.949219 L 150.652344 285.710938 C 150.652344 289.757812 153.9375 293.042969 157.984375 293.042969 L 219.84375 293.042969 C 223.890625 293.042969 227.171875 289.757812 227.171875 285.710938 L 227.171875 272.054688 C 227.1875 271.707031 227.363281 268.527344 228.941406 263.695312 C 230.46875 258.996094 233.675781 251.722656 240.261719 243.707031 C 241.1875 242.609375 246.402344 236.152344 250.214844 225.941406 C 252.582031 219.597656 253.933594 213.070312 254.226562 206.546875 " fill-opacity="1" fill-rule="nonzero"/><g clip-path="url(#4ed2f672fb)"><path fill="#4c2a93" d="M 194.027344 81.976562 C 194.027344 79.152344 191.738281 76.863281 188.910156 76.863281 C 186.089844 76.863281 183.796875 79.152344 183.796875 81.976562 L 183.796875 117.609375 L 194.027344 117.609375 L 194.027344 81.976562 " fill-opacity="1" fill-rule="nonzero"/></g><g clip-path="url(#24a744cdd7)"><path fill="#4c2a93" d="M 310.550781 198.5 L 274.917969 198.5 L 274.917969 208.726562 L 310.550781 208.726562 C 313.375 208.726562 315.664062 206.4375 315.664062 203.613281 C 315.664062 200.789062 313.375 198.5 310.550781 198.5 " fill-opacity="1" fill-rule="nonzero"/></g><path fill="#4c2a93" d="M 253.34375 260.8125 L 246.109375 268.042969 L 271.308594 293.238281 C 273.304688 295.238281 276.542969 295.238281 278.539062 293.238281 C 280.539062 291.242188 280.539062 288.003906 278.539062 286.007812 L 253.34375 260.8125 " fill-opacity="1" fill-rule="nonzero"/><path fill="#4c2a93" d="M 278.539062 121.21875 C 280.539062 119.222656 280.539062 115.984375 278.539062 113.988281 C 276.542969 111.988281 273.304688 111.988281 271.308594 113.988281 L 246.109375 139.183594 L 253.34375 146.414062 L 278.539062 121.21875 " fill-opacity="1" fill-rule="nonzero"/><g clip-path="url(#190fc660b4)"><path fill="#4c2a93" d="M 102.910156 198.5 L 67.273438 198.5 C 64.449219 198.5 62.160156 200.789062 62.160156 203.613281 C 62.160156 206.4375 64.449219 208.726562 67.273438 208.726562 L 102.910156 208.726562 L 102.910156 198.5 " fill-opacity="1" fill-rule="nonzero"/></g><path fill="#4c2a93" d="M 99.285156 286.007812 C 97.289062 288.003906 97.289062 291.242188 99.285156 293.238281 C 101.28125 295.238281 104.519531 295.238281 106.519531 293.238281 L 131.714844 268.042969 L 124.480469 260.8125 L 99.285156 286.007812 " fill-opacity="1" fill-rule="nonzero"/><path fill="#4c2a93" d="M 124.480469 146.414062 L 131.714844 139.183594 L 106.519531 113.988281 C 104.519531 111.988281 101.28125 111.988281 99.285156 113.988281 C 97.289062 115.984375 97.289062 119.222656 99.285156 121.21875 L 124.480469 146.414062 " fill-opacity="1" fill-rule="nonzero"/><path fill="#4c2a93" d="M 187.914062 161.832031 C 187.710938 158.855469 184.984375 156.71875 182.042969 157.207031 C 168.359375 159.488281 159.894531 166.347656 155.054688 172.046875 C 152.472656 175.089844 150.648438 178.105469 149.410156 180.566406 C 147.972656 183.421875 149.503906 186.875 152.589844 187.707031 L 152.730469 187.742188 C 155.035156 188.367188 157.457031 187.28125 158.535156 185.152344 C 161.289062 179.6875 168.273438 169.894531 183.699219 167.304688 C 186.265625 166.871094 188.097656 164.589844 187.921875 161.996094 L 187.914062 161.832031 " fill-opacity="1" fill-rule="nonzero"/><path fill="#4c2a93" d="M 217.558594 297.828125 L 159.925781 297.828125 C 157.199219 297.828125 154.992188 300.117188 154.992188 302.941406 C 154.992188 305.765625 157.199219 308.054688 159.925781 308.054688 L 217.558594 308.054688 C 220.285156 308.054688 222.496094 305.765625 222.496094 302.941406 C 222.496094 300.117188 220.285156 297.828125 217.558594 297.828125 " fill-opacity="1" fill-rule="nonzero"/><path fill="#4c2a93" d="M 217.558594 312.839844 L 159.925781 312.839844 C 157.199219 312.839844 154.992188 315.132812 154.992188 317.953125 C 154.992188 320.78125 157.199219 323.070312 159.925781 323.070312 L 217.558594 323.070312 C 220.285156 323.070312 222.496094 320.78125 222.496094 317.953125 C 222.496094 315.132812 220.285156 312.839844 217.558594 312.839844 " fill-opacity="1" fill-rule="nonzero"/><g clip-path="url(#da1195d043)"><path fill="#4c2a93" d="M 214.703125 327.855469 L 162.78125 327.855469 C 161.265625 327.855469 160.503906 329.691406 161.578125 330.761719 L 170.179688 339.363281 C 172.695312 341.878906 175.9375 343.550781 179.445312 344.109375 C 181.84375 344.488281 184.949219 344.792969 188.742188 344.792969 C 192.539062 344.792969 195.640625 344.488281 198.039062 344.109375 C 201.546875 343.550781 204.789062 341.878906 207.304688 339.363281 L 215.90625 330.761719 C 216.980469 329.691406 216.21875 327.855469 214.703125 327.855469 " fill-opacity="1" fill-rule="nonzero"/></g><g clip-path="url(#b0d3f6d0ee)"><g clip-path="url(#c2d7f7caa9)"><path fill="#4c2a93" d="M 128 143.488281 L 249.863281 143.488281 L 249.863281 295.816406 L 128 295.816406 Z M 128 143.488281 " fill-opacity="1" fill-rule="nonzero"/></g></g></svg>
