<svg xmlns="http://www.w3.org/2000/svg" xmlns:xlink="http://www.w3.org/1999/xlink" width="500" zoomAndPan="magnify" viewBox="0 0 375 374.999991" height="500" preserveAspectRatio="xMidYMid meet" version="1.0"><defs><clipPath id="753e62daa2"><path d="M 75.472656 81.574219 L 101.722656 81.574219 L 101.722656 107.824219 L 75.472656 107.824219 Z M 75.472656 81.574219 " clip-rule="nonzero"/></clipPath><clipPath id="95174be484"><path d="M 8 9 L 367 9 L 367 367.746094 L 8 367.746094 Z M 8 9 " clip-rule="nonzero"/></clipPath><clipPath id="ef168798de"><path d="M 183 70.488281 L 195 70.488281 L 195 114 L 183 114 Z M 183 70.488281 " clip-rule="nonzero"/></clipPath><clipPath id="442cedbb83"><path d="M 279.820312 199 L 322.871094 199 L 322.871094 210 L 279.820312 210 Z M 279.820312 199 " clip-rule="nonzero"/></clipPath><clipPath id="cbc859d802"><path d="M 55.128906 199 L 99 199 L 99 210 L 55.128906 210 Z M 55.128906 199 " clip-rule="nonzero"/></clipPath><clipPath id="78f57a2fe8"><path d="M 159 335 L 219 335 L 219 353.988281 L 159 353.988281 Z M 159 335 " clip-rule="nonzero"/></clipPath><clipPath id="3c75c8434f"><path d="M 127.175781 143.53125 L 250.847656 143.53125 L 250.847656 298.878906 L 127.175781 298.878906 Z M 127.175781 143.53125 " clip-rule="nonzero"/></clipPath><clipPath id="6bf4d5fe82"><path d="M 127.664062 188.492188 C 127.664062 188.417969 128.113281 186.394531 128.261719 185.34375 C 128.488281 184.367188 128.9375 182.34375 128.9375 182.269531 C 128.9375 182.195312 129.839844 180.320312 130.289062 179.417969 C 130.738281 178.445312 131.5625 176.570312 131.636719 176.492188 C 131.636719 176.492188 132.988281 174.84375 133.589844 174.09375 C 134.261719 173.269531 135.613281 171.617188 135.613281 171.617188 C 135.613281 171.542969 137.414062 170.195312 138.164062 169.667969 C 138.6875 169.292969 139.136719 169.144531 139.589844 168.617188 C 140.039062 168.019531 140.113281 167.042969 140.636719 166.21875 C 141.3125 164.945312 143.789062 162.019531 143.789062 162.019531 C 143.789062 162.019531 144.988281 160.144531 146.488281 159.09375 C 149.863281 156.542969 162.988281 152.570312 166.0625 149.644531 C 167.414062 148.367188 166.589844 146.945312 168.089844 146.042969 C 171.613281 143.71875 185.339844 143.492188 192.613281 144.019531 C 198.539062 144.542969 206.414062 147.542969 208.664062 147.84375 C 209.1875 147.917969 209.261719 147.917969 209.714844 147.917969 C 210.464844 147.917969 212.5625 147.992188 212.636719 148.070312 C 212.636719 148.070312 214.4375 148.59375 215.414062 148.820312 C 216.3125 149.117188 218.113281 149.644531 218.113281 149.644531 C 218.1875 149.71875 223.214844 152.195312 224.714844 153.84375 C 225.988281 155.195312 226.363281 157.367188 227.261719 158.269531 C 227.863281 158.867188 229.214844 159.320312 229.214844 159.320312 C 229.289062 159.320312 230.714844 160.59375 231.464844 161.269531 C 232.214844 161.867188 233.636719 163.144531 233.636719 163.21875 C 233.714844 163.21875 234.761719 164.867188 235.363281 165.617188 C 235.8125 166.292969 236.1875 166.894531 236.714844 167.570312 C 237.238281 168.242188 237.914062 168.992188 238.511719 169.667969 C 239.1875 170.34375 240.464844 171.84375 240.464844 171.84375 C 240.464844 171.84375 241.511719 173.792969 241.8125 174.46875 C 242.039062 174.84375 242.339844 175.367188 242.339844 175.367188 C 242.339844 175.367188 242.339844 175.445312 242.339844 175.445312 C 242.339844 175.445312 243.164062 177.019531 243.164062 177.019531 C 243.164062 177.019531 243.238281 177.320312 243.3125 177.542969 C 243.539062 177.917969 244.589844 179.34375 244.589844 179.34375 C 244.589844 179.417969 245.261719 181.21875 245.636719 182.195312 C 246.011719 183.09375 246.6875 184.894531 246.6875 184.96875 C 246.6875 184.96875 246.761719 186.46875 246.988281 186.992188 C 247.0625 187.445312 247.289062 187.667969 247.511719 188.117188 C 247.886719 188.792969 248.863281 190.742188 248.9375 190.742188 C 248.9375 190.820312 249.386719 192.695312 249.613281 193.667969 C 249.839844 194.644531 250.363281 196.519531 250.363281 196.519531 C 250.363281 196.59375 250.363281 198.542969 250.363281 199.519531 C 250.363281 200.492188 250.363281 202.519531 250.363281 202.519531 C 250.363281 202.59375 249.839844 204.542969 249.613281 205.445312 C 249.464844 206.195312 248.9375 207.167969 249.089844 207.617188 C 249.164062 207.84375 249.464844 207.84375 249.539062 208.144531 C 249.839844 209.34375 247.214844 214.519531 247.4375 217.292969 C 247.589844 219.769531 250.289062 221.195312 250.0625 224.042969 C 249.613281 229.445312 241.511719 242.195312 236.863281 246.992188 C 233.9375 250.070312 228.164062 251.792969 227.714844 252.769531 C 227.636719 252.917969 227.863281 253.21875 227.863281 253.21875 C 227.863281 253.292969 227.714844 254.792969 227.863281 256.144531 C 228.238281 258.84375 231.164062 264.09375 231.011719 268.742188 C 230.714844 274.894531 228.761719 284.570312 223.964844 289.445312 C 218.714844 294.769531 199.4375 296.792969 199.289062 298.070312 C 199.289062 298.292969 200.339844 298.59375 200.339844 298.667969 C 200.261719 298.667969 199.511719 298.144531 199.136719 298.144531 C 198.613281 298.144531 198.089844 298.820312 197.414062 298.742188 C 196.214844 298.59375 194.5625 296.417969 192.613281 295.367188 C 190.136719 293.945312 185.789062 291.695312 183.539062 291.46875 C 182.339844 291.394531 181.664062 291.992188 180.613281 292.21875 C 179.636719 292.445312 177.539062 292.96875 177.539062 292.96875 C 177.464844 292.96875 175.363281 292.96875 174.3125 292.96875 C 173.261719 292.96875 171.164062 292.96875 171.089844 292.96875 C 171.089844 292.96875 168.988281 292.445312 168.011719 292.21875 C 166.964844 291.917969 164.9375 291.46875 164.863281 291.46875 C 164.789062 291.394531 162.988281 290.417969 162.011719 289.96875 C 161.039062 289.445312 159.238281 288.46875 159.164062 288.46875 C 159.164062 288.394531 157.589844 287.042969 156.761719 286.292969 C 155.9375 285.617188 154.363281 284.195312 154.363281 284.195312 C 154.363281 284.117188 153.164062 282.394531 152.5625 281.570312 C 151.964844 280.667969 150.761719 278.945312 150.6875 278.867188 C 150.6875 278.867188 149.9375 276.917969 149.5625 275.867188 C 149.1875 274.894531 148.4375 272.945312 148.4375 272.867188 C 148.4375 272.867188 148.214844 270.769531 148.0625 269.71875 C 147.914062 268.667969 147.6875 266.570312 147.6875 266.492188 C 147.6875 266.492188 147.539062 265.21875 147.6875 264.09375 C 147.988281 261.84375 151.136719 256.96875 150.386719 253.519531 C 149.414062 249.394531 143.636719 245.945312 140.414062 241.367188 C 136.511719 235.894531 130.886719 229.445312 129.089844 222.769531 C 127.363281 216.019531 129.761719 201.019531 129.6875 200.945312 C 129.6875 200.867188 129.164062 198.917969 128.863281 197.867188 C 128.5625 196.894531 127.964844 194.867188 127.964844 194.792969 C 127.964844 194.792969 127.8125 192.695312 127.8125 191.644531 C 127.738281 190.59375 127.664062 188.492188 127.664062 188.492188 M 242.339844 175.367188 C 242.339844 175.367188 242.339844 175.445312 242.339844 175.445312 C 242.339844 175.445312 242.339844 175.367188 242.339844 175.367188 " clip-rule="nonzero"/></clipPath></defs><rect x="-37.5" width="450" fill="#ffffff" y="-37.499999" height="449.999989" fill-opacity="0"/><rect x="-37.5" width="450" fill="#ffffff" y="-37.499999" height="449.999989" fill-opacity="0"/><g clip-path="url(#753e62daa2)"><path fill="#ffffff" d="M 75.648438 81.75 L 101.675781 81.75 L 101.675781 107.777344 L 75.648438 107.777344 Z M 75.648438 81.75 " fill-opacity="0" fill-rule="nonzero"/><path fill="#ffffff" d="M 101.675781 107.953125 L 75.648438 107.953125 C 75.550781 107.953125 75.472656 107.878906 75.472656 107.777344 L 75.472656 81.75 C 75.472656 81.652344 75.550781 81.574219 75.648438 81.574219 L 101.675781 81.574219 C 101.773438 81.574219 101.851562 81.652344 101.851562 81.75 L 101.851562 107.777344 C 101.851562 107.878906 101.773438 107.953125 101.675781 107.953125 Z M 75.824219 107.601562 L 101.5 107.601562 L 101.5 81.925781 L 75.824219 81.925781 Z M 75.824219 107.601562 " fill-opacity="0" fill-rule="nonzero"/></g><g clip-path="url(#95174be484)"><path fill="#4c2a93" d="M 361.601562 176.8125 L 329.082031 144.289062 L 198.992188 14.199219 C 198.613281 13.824219 198.222656 13.46875 197.808594 13.128906 C 197.398438 12.792969 196.96875 12.476562 196.527344 12.179688 C 196.085938 11.882812 195.628906 11.609375 195.160156 11.359375 C 194.691406 11.109375 194.207031 10.882812 193.71875 10.675781 C 193.226562 10.472656 192.722656 10.292969 192.214844 10.140625 C 191.707031 9.984375 191.1875 9.855469 190.667969 9.753906 C 190.144531 9.648438 189.617188 9.570312 189.089844 9.519531 C 188.558594 9.464844 188.027344 9.441406 187.496094 9.441406 C 186.960938 9.441406 186.429688 9.464844 185.902344 9.519531 C 185.371094 9.570312 184.84375 9.648438 184.324219 9.753906 C 183.800781 9.855469 183.285156 9.984375 182.777344 10.140625 C 182.265625 10.292969 181.765625 10.472656 181.273438 10.675781 C 180.78125 10.882812 180.300781 11.109375 179.832031 11.359375 C 179.363281 11.609375 178.90625 11.882812 178.460938 12.179688 C 178.019531 12.476562 177.59375 12.792969 177.179688 13.128906 C 176.769531 13.46875 176.375 13.824219 176 14.199219 L 13.386719 176.8125 C 12.652344 177.570312 12 178.394531 11.429688 179.28125 C 10.855469 180.167969 10.371094 181.101562 9.980469 182.082031 C 9.589844 183.0625 9.296875 184.070312 9.101562 185.109375 C 8.90625 186.148438 8.8125 187.195312 8.824219 188.25 C 8.832031 189.304688 8.945312 190.351562 9.15625 191.382812 C 9.371094 192.417969 9.679688 193.421875 10.089844 194.398438 C 10.496094 195.371094 10.996094 196.296875 11.582031 197.171875 C 12.171875 198.046875 12.839844 198.859375 13.585938 199.605469 C 14.332031 200.351562 15.144531 201.019531 16.019531 201.609375 C 16.898438 202.199219 17.824219 202.695312 18.796875 203.105469 C 19.769531 203.511719 20.773438 203.824219 21.808594 204.035156 C 22.84375 204.25 23.886719 204.359375 24.941406 204.367188 C 26 204.378906 27.046875 204.285156 28.082031 204.089844 C 29.121094 203.894531 30.128906 203.601562 31.109375 203.210938 C 32.089844 202.820312 33.023438 202.339844 33.910156 201.765625 C 34.796875 201.191406 35.621094 200.539062 36.382812 199.804688 L 41.144531 195.039062 L 41.144531 350.917969 C 41.144531 351.453125 41.171875 351.984375 41.222656 352.511719 C 41.277344 353.042969 41.355469 353.570312 41.457031 354.089844 C 41.5625 354.613281 41.691406 355.128906 41.84375 355.640625 C 42 356.148438 42.179688 356.648438 42.382812 357.140625 C 42.585938 357.632812 42.816406 358.113281 43.066406 358.585938 C 43.316406 359.054688 43.589844 359.511719 43.886719 359.953125 C 44.183594 360.394531 44.5 360.824219 44.835938 361.234375 C 45.175781 361.648438 45.53125 362.039062 45.90625 362.417969 C 46.285156 362.792969 46.679688 363.152344 47.089844 363.488281 C 47.503906 363.828125 47.929688 364.144531 48.371094 364.441406 C 48.816406 364.734375 49.269531 365.007812 49.742188 365.261719 C 50.210938 365.511719 50.691406 365.738281 51.183594 365.941406 C 51.675781 366.144531 52.175781 366.324219 52.6875 366.480469 C 53.195312 366.632812 53.710938 366.765625 54.234375 366.867188 C 54.757812 366.972656 55.28125 367.050781 55.8125 367.101562 C 56.34375 367.152344 56.875 367.179688 57.40625 367.179688 L 317.582031 367.179688 C 318.117188 367.179688 318.648438 367.152344 319.175781 367.101562 C 319.707031 367.050781 320.234375 366.972656 320.757812 366.867188 C 321.277344 366.765625 321.792969 366.632812 322.304688 366.480469 C 322.8125 366.324219 323.316406 366.144531 323.808594 365.941406 C 324.296875 365.738281 324.78125 365.511719 325.25 365.261719 C 325.71875 365.007812 326.175781 364.734375 326.617188 364.441406 C 327.0625 364.144531 327.488281 363.828125 327.898438 363.488281 C 328.3125 363.152344 328.707031 362.792969 329.082031 362.417969 C 329.457031 362.039062 329.816406 361.648438 330.152344 361.234375 C 330.492188 360.824219 330.808594 360.394531 331.105469 359.953125 C 331.398438 359.511719 331.671875 359.054688 331.925781 358.585938 C 332.175781 358.113281 332.402344 357.632812 332.605469 357.140625 C 332.8125 356.648438 332.988281 356.148438 333.144531 355.640625 C 333.300781 355.128906 333.429688 354.613281 333.53125 354.089844 C 333.636719 353.570312 333.714844 353.042969 333.765625 352.511719 C 333.820312 351.984375 333.84375 351.453125 333.84375 350.917969 L 333.84375 195.039062 L 338.609375 199.804688 C 339.367188 200.539062 340.191406 201.191406 341.078125 201.765625 C 341.964844 202.339844 342.898438 202.820312 343.878906 203.210938 C 344.859375 203.601562 345.871094 203.894531 346.90625 204.089844 C 347.945312 204.285156 348.992188 204.378906 350.046875 204.367188 C 351.101562 204.359375 352.148438 204.25 353.183594 204.035156 C 354.214844 203.824219 355.21875 203.511719 356.195312 203.105469 C 357.167969 202.695312 358.09375 202.199219 358.96875 201.609375 C 359.847656 201.019531 360.65625 200.351562 361.40625 199.605469 C 362.152344 198.859375 362.820312 198.046875 363.40625 197.171875 C 363.996094 196.296875 364.492188 195.371094 364.902344 194.394531 C 365.3125 193.421875 365.621094 192.417969 365.832031 191.382812 C 366.046875 190.351562 366.15625 189.304688 366.167969 188.25 C 366.175781 187.195312 366.082031 186.148438 365.886719 185.109375 C 365.695312 184.070312 365.402344 183.0625 365.007812 182.082031 C 364.617188 181.101562 364.136719 180.167969 363.5625 179.28125 C 362.988281 178.394531 362.335938 177.570312 361.601562 176.8125 Z M 361.601562 176.8125 " fill-opacity="1" fill-rule="nonzero"/></g><path fill="#ffffff" d="M 234.941406 239.96875 C 218.609375 259.800781 218.609375 276.71875 218.609375 276.71875 L 218.609375 288.191406 L 159.394531 288.191406 L 159.394531 276.71875 C 159.394531 276.71875 159.394531 259.800781 143.0625 239.96875 C 143.0625 239.96875 122.839844 216.375 134.246094 185.78125 C 145.351562 156 171.289062 146.609375 187.679688 146.613281 C 188.128906 146.613281 188.570312 146.617188 189 146.632812 C 189.4375 146.617188 189.875 146.613281 190.324219 146.613281 C 206.714844 146.613281 232.652344 156 243.757812 185.78125 C 255.164062 216.375 234.941406 239.96875 234.941406 239.96875 Z M 257.984375 207.636719 C 258.371094 198.976562 256.988281 190.351562 253.878906 182.007812 C 250.824219 173.8125 246.59375 166.464844 241.304688 160.15625 C 236.554688 154.492188 230.953125 149.664062 224.660156 145.8125 C 219.128906 142.429688 213.144531 139.84375 206.878906 138.125 C 201.351562 136.609375 195.625 135.808594 190.324219 135.808594 C 189.878906 135.808594 189.4375 135.816406 189 135.824219 C 188.566406 135.816406 188.121094 135.808594 187.679688 135.808594 C 182.378906 135.808594 176.65625 136.609375 171.125 138.125 C 164.859375 139.84375 158.878906 142.425781 153.34375 145.8125 C 147.050781 149.664062 141.449219 154.488281 136.695312 160.15625 C 131.410156 166.464844 127.179688 173.8125 124.125 182.007812 C 121.011719 190.351562 119.632812 198.976562 120.019531 207.636719 C 120.328125 214.527344 121.753906 221.421875 124.257812 228.125 C 128.28125 238.910156 133.792969 245.730469 134.769531 246.890625 C 142.042969 255.738281 145.445312 263.753906 147.019531 268.925781 C 148.449219 273.628906 148.59375 276.691406 148.59375 276.71875 L 148.59375 291.25 C 148.59375 295.527344 152.058594 298.992188 156.335938 298.992188 L 221.667969 298.992188 C 225.945312 298.992188 229.410156 295.527344 229.410156 291.25 L 229.410156 276.828125 C 229.425781 276.460938 229.613281 273.101562 231.277344 267.996094 C 232.890625 263.035156 236.277344 255.351562 243.238281 246.890625 C 244.210938 245.730469 249.722656 238.910156 253.746094 228.125 C 256.25 221.421875 257.675781 214.527344 257.984375 207.636719 " fill-opacity="1" fill-rule="nonzero"/><g clip-path="url(#ef168798de)"><path fill="#ffffff" d="M 194.402344 76.070312 C 194.402344 73.085938 191.984375 70.667969 189 70.667969 C 186.019531 70.667969 183.597656 73.085938 183.597656 76.070312 L 183.597656 113.707031 L 194.402344 113.707031 L 194.402344 76.070312 " fill-opacity="1" fill-rule="nonzero"/></g><g clip-path="url(#442cedbb83)"><path fill="#ffffff" d="M 317.472656 199.140625 L 279.835938 199.140625 L 279.835938 209.945312 L 317.472656 209.945312 C 320.457031 209.945312 322.875 207.523438 322.875 204.542969 C 322.875 201.558594 320.457031 199.140625 317.472656 199.140625 " fill-opacity="1" fill-rule="nonzero"/></g><path fill="#ffffff" d="M 257.050781 264.953125 L 249.414062 272.59375 L 276.027344 299.203125 C 278.132812 301.3125 281.554688 301.3125 283.664062 299.203125 C 285.773438 297.09375 285.773438 293.675781 283.664062 291.566406 L 257.050781 264.953125 " fill-opacity="1" fill-rule="nonzero"/><path fill="#ffffff" d="M 283.664062 117.519531 C 285.773438 115.410156 285.773438 111.988281 283.664062 109.878906 C 281.554688 107.769531 278.132812 107.769531 276.027344 109.878906 L 249.414062 136.492188 L 257.050781 144.128906 L 283.664062 117.519531 " fill-opacity="1" fill-rule="nonzero"/><g clip-path="url(#cbc859d802)"><path fill="#ffffff" d="M 98.167969 199.140625 L 60.527344 199.140625 C 57.546875 199.140625 55.128906 201.558594 55.128906 204.542969 C 55.128906 207.523438 57.546875 209.945312 60.527344 209.945312 L 98.167969 209.945312 L 98.167969 199.140625 " fill-opacity="1" fill-rule="nonzero"/></g><path fill="#ffffff" d="M 94.339844 291.566406 C 92.230469 293.675781 92.230469 297.09375 94.339844 299.203125 C 96.449219 301.3125 99.867188 301.3125 101.976562 299.203125 L 128.589844 272.59375 L 120.949219 264.953125 L 94.339844 291.566406 " fill-opacity="1" fill-rule="nonzero"/><path fill="#ffffff" d="M 120.949219 144.128906 L 128.589844 136.492188 L 101.976562 109.878906 C 99.867188 107.769531 96.449219 107.769531 94.339844 109.878906 C 92.230469 111.988281 92.230469 115.410156 94.339844 117.519531 L 120.949219 144.128906 " fill-opacity="1" fill-rule="nonzero"/><path fill="#ffffff" d="M 187.945312 160.414062 C 187.734375 157.269531 184.851562 155.011719 181.746094 155.527344 C 167.292969 157.9375 158.355469 165.179688 153.242188 171.203125 C 150.511719 174.414062 148.589844 177.597656 147.28125 180.203125 C 145.761719 183.21875 147.378906 186.863281 150.636719 187.742188 L 150.785156 187.78125 C 153.21875 188.4375 155.78125 187.292969 156.917969 185.042969 C 159.824219 179.273438 167.203125 168.929688 183.492188 166.191406 C 186.203125 165.734375 188.140625 163.328125 187.957031 160.585938 L 187.945312 160.414062 " fill-opacity="1" fill-rule="nonzero"/><path fill="#ffffff" d="M 219.257812 304.050781 L 158.386719 304.050781 C 155.507812 304.050781 153.175781 306.464844 153.175781 309.449219 C 153.175781 312.433594 155.507812 314.851562 158.386719 314.851562 L 219.257812 314.851562 C 222.136719 314.851562 224.472656 312.433594 224.472656 309.449219 C 224.472656 306.464844 222.136719 304.050781 219.257812 304.050781 " fill-opacity="1" fill-rule="nonzero"/><path fill="#ffffff" d="M 219.257812 319.90625 L 158.386719 319.90625 C 155.507812 319.90625 153.175781 322.324219 153.175781 325.308594 C 153.175781 328.292969 155.507812 330.710938 158.386719 330.710938 L 219.257812 330.710938 C 222.136719 330.710938 224.472656 328.292969 224.472656 325.308594 C 224.472656 322.324219 222.136719 319.90625 219.257812 319.90625 " fill-opacity="1" fill-rule="nonzero"/><g clip-path="url(#78f57a2fe8)"><path fill="#ffffff" d="M 216.238281 335.765625 L 161.402344 335.765625 C 159.800781 335.765625 158.996094 337.699219 160.132812 338.832031 L 169.214844 347.917969 C 171.875 350.578125 175.296875 352.339844 179.003906 352.929688 C 181.535156 353.332031 184.816406 353.65625 188.820312 353.65625 C 192.828125 353.65625 196.109375 353.332031 198.640625 352.929688 C 202.347656 352.339844 205.769531 350.578125 208.425781 347.917969 L 217.511719 338.832031 C 218.644531 337.699219 217.84375 335.765625 216.238281 335.765625 " fill-opacity="1" fill-rule="nonzero"/></g><g clip-path="url(#3c75c8434f)"><g clip-path="url(#6bf4d5fe82)"><path fill="#ffffff" d="M 124.664062 141.019531 L 253.363281 141.019531 L 253.363281 301.894531 L 124.664062 301.894531 Z M 124.664062 141.019531 " fill-opacity="1" fill-rule="nonzero"/></g></g></svg>
